<?xml version="1.0" standalone="no"?>
<!DOCTYPE svg PUBLIC "-//W3C//DTD SVG 20010904//EN"
 "http://www.w3.org/TR/2001/REC-SVG-20010904/DTD/svg10.dtd">
<svg version="1.0" xmlns="http://www.w3.org/2000/svg"
 width="500.000000pt" height="500.000000pt" viewBox="0 0 500.000000 500.000000"
 preserveAspectRatio="xMidYMid meet">
<metadata>
Created by potrace 1.14, written by Peter Selinger 2001-2017
</metadata>
<g transform="translate(0.000000,500.000000) scale(0.100000,-0.100000)"
fill="#000000" stroke="none">
<path d="M2310 4119 c0 -12 -8 -15 -27 -13 -15 1 -36 -2 -46 -8 -14 -7 -22 -7
-27 2 -6 9 -9 9 -13 -1 -4 -10 -6 -10 -6 -1 -1 12 -1 12 -62 -19 -17 -8 -19
-8 -13 3 6 10 5 11 -8 1 -8 -7 -18 -10 -21 -6 -4 3 -7 1 -7 -6 0 -7 -4 -10 -9
-7 -11 7 -71 -16 -71 -27 0 -4 -4 -5 -10 -2 -5 3 -10 1 -10 -5 0 -6 -4 -9 -9
-5 -6 3 -14 -3 -20 -12 -6 -10 -11 -12 -11 -5 0 7 -8 4 -20 -8 -12 -12 -26
-18 -32 -14 -7 5 -9 2 -5 -9 4 -11 2 -14 -9 -10 -7 3 -14 -1 -14 -8 0 -7 -3
-10 -6 -6 -3 3 -15 -4 -27 -14 -59 -53 -60 -54 -52 -39 4 8 -6 0 -24 -18 -17
-18 -31 -27 -32 -20 0 7 -4 3 -10 -10 -5 -13 -13 -21 -18 -17 -5 3 -12 -3 -16
-14 -3 -10 -15 -21 -26 -24 -12 -3 -18 -10 -14 -16 4 -7 0 -8 -11 -4 -12 4
-15 3 -10 -5 4 -7 2 -12 -6 -12 -7 0 -21 -14 -31 -31 -11 -21 -22 -29 -33 -25
-8 3 -12 2 -9 -4 3 -5 -5 -21 -19 -35 -15 -14 -26 -28 -26 -31 0 -12 -28 -33
-35 -26 -5 4 -5 2 -2 -4 4 -6 -5 -24 -18 -40 -14 -16 -25 -35 -25 -42 0 -7 -4
-10 -10 -7 -9 6 -15 -8 -11 -29 1 -5 -5 -6 -13 -3 -10 4 -13 1 -9 -9 3 -7 0
-14 -6 -14 -6 0 -11 -7 -11 -15 0 -8 -5 -15 -12 -15 -6 0 -8 -3 -5 -7 4 -3 -1
-12 -11 -20 -11 -9 -11 -12 -2 -7 8 4 5 -3 -7 -15 -13 -12 -23 -29 -23 -37 0
-8 -4 -12 -10 -9 -6 3 -7 -1 -4 -9 3 -9 1 -16 -5 -16 -6 0 -10 -3 -9 -7 1 -5
-4 -21 -10 -36 -7 -16 -9 -33 -6 -39 4 -7 2 -8 -4 -4 -6 4 -11 -1 -10 -11 0
-23 -9 -60 -18 -75 -5 -7 -3 -8 7 -3 12 8 12 6 0 -8 -7 -9 -10 -17 -7 -17 4 0
2 -8 -3 -18 -6 -11 -6 -24 0 -35 6 -10 6 -17 1 -17 -5 0 -7 -11 -4 -25 2 -14
-2 -33 -9 -42 -12 -14 -12 -15 0 -9 10 7 12 3 6 -13 -4 -14 -2 -21 7 -21 10 0
9 -3 -2 -10 -8 -5 -10 -10 -5 -10 6 0 3 -5 -5 -10 -12 -8 -12 -10 -1 -10 11 0
11 -3 0 -17 -12 -15 -12 -16 1 -8 12 7 13 6 4 -6 -12 -16 -12 -29 -1 -46 4 -6
3 -15 -3 -18 -7 -4 -7 -12 -2 -18 10 -14 10 -27 -1 -44 -4 -6 -3 -14 3 -18 7
-4 7 -12 0 -25 -7 -13 -7 -21 0 -25 8 -5 7 -12 -2 -23 -10 -12 -10 -14 0 -8 8
5 11 1 8 -16 -2 -13 1 -31 6 -40 6 -13 5 -18 -4 -18 -10 0 -10 -2 1 -9 7 -5
10 -14 7 -20 -4 -6 -4 -11 1 -11 4 0 9 -12 9 -27 3 -42 13 -78 23 -81 5 -2 7
-12 4 -22 -3 -12 0 -20 6 -20 7 0 10 -4 7 -8 -3 -5 1 -20 9 -35 7 -14 11 -28
7 -31 -3 -3 0 -6 7 -6 7 0 11 -6 8 -13 -3 -8 3 -20 14 -28 10 -7 19 -24 19
-37 0 -13 4 -21 9 -18 5 3 11 -4 14 -15 4 -14 10 -18 19 -13 7 4 10 4 6 -1 -4
-4 1 -19 12 -33 11 -13 17 -28 14 -33 -3 -5 0 -8 8 -7 7 2 12 -3 10 -10 -1 -6
1 -11 5 -11 20 3 26 -2 13 -11 -13 -8 -12 -10 3 -10 9 0 17 -3 17 -8 0 -4 11
-19 24 -34 14 -14 22 -29 18 -34 -4 -4 1 -4 10 -1 13 4 15 2 11 -10 -4 -11 -2
-14 5 -9 7 4 12 1 12 -9 0 -9 4 -14 9 -11 12 8 34 -21 26 -34 -4 -6 -3 -9 2
-8 12 4 54 -28 46 -35 -3 -4 2 -7 13 -7 16 0 17 -2 4 -10 -13 -8 -12 -10 3
-10 11 0 31 -13 47 -30 15 -16 30 -26 34 -23 3 3 6 -2 6 -13 0 -16 2 -17 10
-4 8 13 10 12 10 -3 0 -19 38 -39 55 -29 6 3 4 -2 -4 -11 -12 -15 -12 -17 3
-11 9 3 16 1 16 -5 0 -6 8 -11 19 -11 10 0 24 -7 31 -15 7 -9 19 -14 27 -11 8
3 11 1 8 -4 -3 -6 2 -10 11 -10 10 0 29 -10 42 -22 14 -13 22 -17 18 -10 -4 6
-2 12 3 12 6 0 11 -5 11 -11 0 -5 5 -7 10 -4 6 3 10 1 10 -6 0 -7 3 -9 6 -6 4
3 16 1 28 -5 11 -7 24 -11 29 -10 4 1 7 -3 7 -9 0 -5 5 -7 10 -4 6 4 18 1 27
-7 14 -11 16 -11 9 2 -7 13 -6 13 6 0 13 -15 30 -20 86 -23 17 -1 32 -5 32
-10 0 -5 8 -7 18 -5 11 2 27 -4 37 -12 11 -8 16 -10 12 -3 -5 8 0 11 13 10 11
-1 20 -5 20 -10 0 -5 7 -4 15 3 9 8 15 8 15 2 0 -6 13 -9 30 -7 17 2 28 1 26
-4 -3 -4 1 -8 9 -8 8 0 12 4 10 8 -6 8 25 22 33 14 3 -3 0 -5 -6 -5 -7 0 -12
-4 -12 -10 0 -6 9 -6 23 -2 12 5 34 7 50 6 19 -2 25 1 20 9 -5 9 -3 9 8 0 12
-10 18 -10 29 0 10 10 11 9 5 -3 -8 -13 -7 -13 8 -1 14 11 17 11 17 0 0 -9 3
-10 8 -3 4 6 19 11 35 11 15 1 28 2 30 3 3 3 57 10 90 12 15 1 27 6 27 10 0 5
5 6 11 2 6 -3 15 0 20 7 7 12 9 11 9 -1 0 -11 2 -12 8 -3 4 7 19 14 32 17 14
2 24 8 23 14 -1 5 7 8 17 5 12 -3 20 0 20 6 0 7 5 9 10 6 6 -3 10 -2 10 4 0 6
7 8 15 4 9 -3 23 3 31 13 9 11 13 12 9 4 -4 -9 -1 -8 8 3 11 14 16 15 20 5 4
-10 6 -10 6 0 1 6 7 12 15 12 7 0 21 10 30 23 9 12 14 17 11 10 -3 -7 2 -9 14
-6 11 3 22 11 25 19 3 8 12 14 21 14 8 0 15 5 15 12 0 6 3 8 6 5 4 -4 15 3 25
14 10 12 23 18 30 13 7 -4 10 -3 7 2 -3 5 3 17 14 27 10 9 18 14 18 10 0 -5
14 7 30 26 17 18 30 30 30 25 1 -5 7 2 15 16 7 14 17 25 22 25 4 0 7 3 5 8 -1
4 7 7 18 7 12 0 17 5 14 14 -3 8 3 16 16 19 12 3 19 10 16 15 -3 6 1 13 10 16
8 3 12 11 9 16 -4 6 -3 10 2 9 20 -3 33 2 31 14 -2 6 3 11 11 9 12 -3 12 -1 1
13 -7 9 -9 15 -4 14 20 -3 35 1 30 10 -3 4 10 25 30 45 22 22 34 43 30 52 -3
8 -2 12 4 9 11 -7 32 29 22 39 -3 4 2 4 11 0 10 -3 17 -3 15 2 -4 15 13 54 23
54 5 0 8 3 7 8 -3 16 15 62 23 57 4 -3 6 4 4 15 -2 11 1 20 6 20 6 0 8 4 4 9
-3 5 0 13 6 16 5 4 8 13 5 21 -3 8 -1 14 3 14 5 0 8 8 7 18 -2 9 1 19 5 22 5
3 9 20 11 38 1 18 5 32 9 32 3 0 5 16 4 35 -1 28 2 35 13 30 11 -4 12 -2 5 7
-11 15 -11 28 1 47 7 10 6 12 -4 6 -10 -6 -11 -4 -4 6 5 8 7 22 6 32 -2 9 2
17 9 17 8 0 8 4 -1 15 -10 12 -10 15 0 15 7 0 10 6 7 14 -3 7 0 19 6 26 9 10
9 14 -1 17 -10 4 -10 8 -1 20 10 11 10 16 0 23 -9 5 -10 13 -5 21 13 21 13 39
1 39 -7 0 -5 5 3 10 8 5 10 10 5 10 -6 0 -11 9 -12 20 -1 13 2 18 10 13 7 -3
3 4 -8 17 -11 13 -14 20 -7 16 18 -11 15 5 -5 21 -10 8 -12 12 -5 8 14 -7 13
29 -1 53 -5 7 -3 12 3 12 6 0 8 5 5 10 -4 6 -10 8 -13 6 -4 -2 -7 11 -6 30 1
19 -2 34 -8 34 -5 0 -7 4 -3 9 3 5 -1 15 -8 23 -8 7 -13 21 -11 31 1 9 -2 17
-7 17 -6 0 -7 5 -4 10 3 6 1 10 -5 10 -6 0 -9 4 -5 9 3 5 1 12 -5 16 -6 4 -7
11 -4 17 4 7 2 8 -4 4 -11 -7 -14 -3 -16 27 -1 6 -10 17 -21 24 -11 7 -15 12
-8 13 7 0 10 7 7 15 -4 8 -10 13 -14 10 -8 -5 -25 42 -21 58 1 5 -3 6 -9 2 -5
-3 -10 -1 -10 5 0 6 -7 18 -15 27 -8 8 -12 19 -9 25 4 7 2 8 -4 4 -7 -4 -12
-1 -12 8 0 9 -5 16 -12 16 -6 0 -9 3 -5 6 3 4 1 12 -6 20 -29 33 -37 44 -37
54 0 6 -7 13 -15 16 -8 3 -17 14 -20 25 -4 11 -11 17 -16 14 -5 -4 -9 1 -9 9
0 9 -6 16 -14 16 -8 0 -18 5 -22 12 -5 7 -3 8 7 3 8 -5 -11 17 -42 48 -31 31
-65 57 -75 57 -16 0 -17 2 -4 10 8 5 10 10 4 10 -5 0 -19 7 -30 16 -10 8 -13
12 -5 8 10 -5 12 -3 7 5 -5 7 -10 10 -13 7 -8 -8 -44 14 -38 23 2 5 -3 8 -13
7 -9 0 -16 5 -14 12 1 8 -2 11 -7 8 -5 -4 -13 -1 -17 5 -4 8 -9 7 -15 -2 -6
-10 -9 -8 -9 8 0 13 -3 22 -7 22 -28 -4 -53 3 -53 16 0 9 -6 12 -17 8 -10 -3
-15 -2 -10 2 7 8 -52 35 -80 37 -7 1 -13 5 -13 10 0 5 -4 6 -10 3 -5 -3 -10
-2 -10 4 0 5 -9 8 -20 6 -11 -2 -20 0 -20 6 0 5 -8 9 -17 9 -10 0 -31 7 -48
16 -16 8 -38 13 -47 11 -10 -3 -16 -2 -13 3 3 4 -2 11 -11 14 -22 8 -26 8 -19
-4 10 -15 -2 -12 -20 6 -16 17 -89 28 -79 13 3 -5 -2 -6 -10 -3 -9 3 -16 11
-16 17 0 8 -4 7 -12 -1 -9 -9 -15 -9 -27 1 -12 10 -13 9 -6 -3 8 -13 7 -13 -8
-1 -13 10 -17 10 -17 1 0 -9 -3 -10 -13 -1 -10 8 -17 7 -27 -2 -10 -10 -11 -9
-5 3 8 13 7 13 -8 1 -14 -11 -17 -11 -17 0 0 12 -2 12 -9 0 -7 -11 -9 -11 -14
0 -5 12 -6 12 -6 0 -1 -11 -4 -11 -16 -1 -12 10 -15 10 -15 0 0 -10 -3 -10
-14 -1 -10 8 -16 9 -21 1 -3 -5 -13 -10 -21 -10 -10 0 -12 5 -8 13 6 9 4 9 -7
1 -18 -14 -52 -14 -61 0 -5 7 -8 5 -8 -5z"/>
</g>
</svg>
